<?xml version="1.0" encoding="UTF-8"?>
<svg width="262px" height="112px" viewBox="0 0 262 112" xmlns="http://www.w3.org/2000/svg" xmlns:xlink="http://www.w3.org/1999/xlink" version="1.1">
 <!-- Generated by Pixelmator Pro 2.0.8 -->
 <g id="surface1">
  <g id="group">
   <path id="Path" d="M251.996 24.68 C251.996 18.359 251.609 14.18 250.828 12.148 249.703 9.328 247.234 7.926 243.426 7.926 L239.852 7.926 239.852 41.051 243.555 41.051 C247.148 41.051 249.57 39.516 250.828 36.441 251.609 34.316 251.996 30.402 251.996 24.68 Z M262.004 23.254 C262.004 29.531 261.746 33.973 261.223 36.57 260.527 40.426 258.949 43.238 256.48 45.016 253.797 46.961 249.684 47.938 244.141 47.938 L230.043 47.938 230.043 0.973 244.074 0.973 C251.738 0.973 256.762 2.813 259.145 6.496 261.051 9.395 262.004 14.984 262.004 23.254 Z M207.82 27.02 L222.309 27.02 222.309 20.266 207.82 20.266 207.82 7.926 223.672 7.926 223.672 0.973 198.012 0.973 198.012 47.938 224.063 47.938 224.063 40.988 207.82 40.988 Z M189.898 47.938 L189.898 0.973 173.984 0.973 166.645 37.223 159.367 0.973 143.453 0.973 143.453 47.938 152.027 47.938 152.027 7.34 161.059 47.938 171.516 47.938 180.609 7.469 180.609 47.938 Z M114.031 26.891 L125.469 26.891 125.469 47.938 135.34 47.938 135.34 0.973 125.469 0.973 125.469 20.008 114.031 20.008 114.031 0.973 104.16 0.973 104.16 47.938 114.031 47.938 Z M82.82 48.914 C88.188 48.914 92.117 47.699 94.609 45.273 97.102 42.848 98.344 38.91 98.344 33.449 L98.344 32.023 88.535 32.023 88.535 33.195 C88.535 36.051 88.258 38.063 87.691 39.234 86.867 41.098 85.223 42.027 82.754 42.027 80.156 42.027 78.426 40.617 77.559 37.809 76.906 35.512 76.586 30.789 76.586 23.645 76.586 17.668 76.887 13.574 77.496 11.363 78.316 8.379 80.113 6.883 82.887 6.883 86.48 6.883 88.277 9.438 88.277 14.551 L88.277 15.527 97.953 15.527 97.953 14.289 C97.953 9.133 96.699 5.434 94.188 3.18 91.809 1.059 88.059 -0.004 82.949 -0.004 75.891 -0.004 71.234 2.297 68.984 6.883 67.426 10.09 66.645 16 66.645 24.617 66.645 33.449 67.531 39.516 69.309 42.805 71.563 46.879 76.063 48.914 82.82 48.914 Z M62.324 40.988 L46.086 40.988 46.086 27.02 60.57 27.02 60.57 20.266 46.086 20.266 46.086 7.926 61.938 7.926 61.938 0.973 36.277 0.973 36.277 47.938 62.324 47.938 Z M10.605 47.938 L20.48 47.938 20.48 7.988 31.066 7.988 31.066 0.973 -0.047 0.973 -0.047 7.988 10.605 7.988 Z M192.75 89.52 L207.242 89.52 207.242 82.762 192.75 82.762 192.75 70.418 208.605 70.418 208.605 63.465 182.938 63.465 182.938 110.445 208.992 110.445 208.992 103.492 192.75 103.492 Z M165.066 76.914 C165.066 74.531 164.516 72.844 163.41 71.844 162.305 70.848 160.586 70.352 158.246 70.352 L154.215 70.352 154.215 84 157.727 84 C160.41 84 162.305 83.477 163.41 82.438 164.516 81.398 165.066 79.559 165.066 76.914 Z M174.621 104.207 C174.75 106.633 175.012 108.711 175.398 110.445 L165.133 110.445 C164.961 109.492 164.84 108.434 164.777 107.258 164.711 106.09 164.656 104.816 164.613 103.426 164.527 100.957 164.461 99.008 164.418 97.578 164.203 94.805 163.68 92.988 162.859 92.121 161.992 91.211 160.262 90.754 157.66 90.754 L154.281 90.754 154.281 110.445 144.469 110.445 144.469 63.465 160.453 63.465 C165.219 63.465 168.684 64.18 170.852 65.609 173.621 67.473 175.012 70.848 175.012 75.746 175.012 82.285 172.305 86.121 166.891 87.246 170.137 87.508 172.281 88.742 173.32 90.949 174.012 92.383 174.383 94.957 174.426 98.684 174.469 99.852 174.531 101.691 174.621 104.207 Z M108.473 70.48 L119.129 70.48 119.129 110.441 129.008 110.441 129.008 70.48 139.598 70.48 139.598 63.465 108.473 63.465 Z M95.215 102.387 L84.816 63.465 70.328 63.465 70.328 110.445 78.711 110.445 78.711 71.586 89.105 110.445 103.598 110.445 103.598 63.465 95.215 63.465 Z M47.648 89.52 L62.141 89.52 62.141 82.762 47.648 82.762 47.648 70.418 63.504 70.418 63.504 63.465 37.84 63.465 37.84 110.445 63.895 110.445 63.895 103.492 47.648 103.492 Z M21.852 94.523 L31.664 94.523 31.664 95.953 C31.664 101.41 30.422 105.355 27.93 107.781 25.438 110.207 21.504 111.422 16.137 111.422 9.375 111.422 4.867 109.383 2.617 105.313 0.844 102.02 -0.047 95.953 -0.047 87.117 -0.047 78.496 0.734 72.582 2.293 69.375 4.547 64.785 9.203 62.488 16.266 62.488 21.375 62.488 25.121 63.551 27.508 65.676 30.02 67.926 31.277 71.629 31.277 76.785 L31.277 78.02 21.594 78.02 21.594 77.043 C21.594 71.934 19.797 69.375 16.199 69.375 13.426 69.375 11.629 70.871 10.805 73.859 10.199 76.07 9.895 80.164 9.895 86.145 9.895 93.289 10.223 98.012 10.871 100.309 11.738 103.125 13.469 104.531 16.07 104.531 18.535 104.531 20.184 103.602 21.008 101.738 21.57 100.566 21.852 98.555 21.852 95.691 Z" fill="#3b98b4" fill-opacity="1" stroke="none"/>
  </g>
 </g>
</svg>
